<mxfile host="app.diagrams.net" agent="Mozilla/5.0 (Windows NT 10.0; Win64; x64) AppleWebKit/537.36 (KHTML, like Gecko) Chrome/139.0.0.0 Safari/537.36" version="28.1.2">
  <diagram name="Architecture Flow" id="0">
    <mxGraphModel dx="925" dy="524" grid="1" gridSize="10" guides="1" tooltips="1" connect="1" arrows="1" fold="1" page="1" pageScale="1" pageWidth="827" pageHeight="1169" math="0" shadow="0">
      <root>
        <mxCell id="0" />
        <mxCell id="1" parent="0" />
        <mxCell id="n1" value="User Query (NLP)" style="rounded=1;whiteSpace=wrap;html=1;shadow=0;fillColor=#ffffff;strokeColor=#000000;" parent="1" vertex="1">
          <mxGeometry x="60" y="80" width="200" height="70" as_="geometry" as="geometry" />
        </mxCell>
        <mxCell id="n2" value="Client Application (Web/Mobile) Initiates the process" style="rounded=1;whiteSpace=wrap;html=1;shadow=0;fillColor=#dae8fc;strokeColor=#6c8ebf;" parent="1" vertex="1">
          <mxGeometry x="320" y="80" width="200" height="70" as_="geometry" as="geometry" />
        </mxCell>
        <mxCell id="n3" value="API Gateway (FastAPI) `POST /ingest-excel`" style="rounded=1;whiteSpace=wrap;html=1;fillColor=#fff2cc;strokeColor=#d6b656;" parent="1" vertex="1">
          <mxGeometry x="580" y="80" width="200" height="70" as_="geometry" as="geometry" />
        </mxCell>
        <mxCell id="n4" value="Excel Parser &amp; Validator (file parsing + validation)" style="rounded=1;whiteSpace=wrap;html=1;shadow=0;fillColor=#dae8fc;strokeColor=#6c8ebf;" parent="1" vertex="1">
          <mxGeometry x="310" y="220" width="210" height="70" as_="geometry" as="geometry" />
        </mxCell>
        <mxCell id="n5" value="Data Transformer (split insurance period + transform)" style="rounded=1;whiteSpace=wrap;html=1;shadow=0;fillColor=#dae8fc;strokeColor=#6c8ebf;" parent="1" vertex="1">
          <mxGeometry x="580" y="220" width="200" height="70" as_="geometry" as="geometry" />
        </mxCell>
        <mxCell id="n6" value="Embedding Generator (create vector embeddings from text)" style="shape=process;rounded=1;whiteSpace=wrap;html=1;fillColor=#d5e8d4;strokeColor=#82b366;" parent="1" vertex="1">
          <mxGeometry x="580" y="360" width="200" height="70" as_="geometry" as="geometry" />
        </mxCell>
        <mxCell id="n7" value="PostgreSQL Database (store structured policy data)" style="shape=cylinder;whiteSpace=wrap;html=1;boundedLbl=1;fillColor=#ffe6cc;strokeColor=#d79b00;" parent="1" vertex="1">
          <mxGeometry x="322" y="358" width="200" height="90" as_="geometry" as="geometry" />
        </mxCell>
        <mxCell id="n8" value="Vector Database (Pinecone) (store document embeddings)" style="shape=cylinder;whiteSpace=wrap;html=1;boundedLbl=1;fillColor=#ffe6cc;strokeColor=#d79b00;" parent="1" vertex="1">
          <mxGeometry x="840" y="360" width="200" height="80" as_="geometry" as="geometry" />
        </mxCell>
        <mxCell id="n9" value="Monitoring &amp; Logging (health checks, metrics, error tracking)" style="rounded=1;whiteSpace=wrap;html=1;dashed=1;fillColor=#f8cecc;strokeColor=#b85450;" parent="1" vertex="1">
          <mxGeometry x="840" y="80" width="220" height="90" as_="geometry" as="geometry" />
        </mxCell>
        <mxCell id="e1" parent="1" source="n1" target="n2" edge="1">
          <mxGeometry relative="1" as_="geometry" as="geometry" />
        </mxCell>
        <mxCell id="e2" parent="1" source="n2" target="n3" edge="1">
          <mxGeometry relative="1" as_="geometry" as="geometry" />
        </mxCell>
        <mxCell id="e3" parent="1" source="n3" target="n4" edge="1">
          <mxGeometry relative="1" as_="geometry" as="geometry" />
        </mxCell>
        <mxCell id="e4" parent="1" source="n4" target="n5" edge="1">
          <mxGeometry relative="1" as_="geometry" as="geometry" />
        </mxCell>
        <mxCell id="e5" parent="1" source="n5" target="n7" edge="1">
          <mxGeometry relative="1" as_="geometry" as="geometry" />
        </mxCell>
        <mxCell id="e6" parent="1" source="n5" target="n6" edge="1">
          <mxGeometry relative="1" as_="geometry" as="geometry" />
        </mxCell>
        <mxCell id="e7" parent="1" source="n6" target="n8" edge="1">
          <mxGeometry relative="1" as_="geometry" as="geometry" />
        </mxCell>
        <mxCell id="e10" style="dashed=1;strokeColor=#b85450;endArrow=none;" parent="1" source="n9" target="n2" edge="1">
          <mxGeometry relative="1" as_="geometry" as="geometry" />
        </mxCell>
        <mxCell id="e11" style="dashed=1;strokeColor=#b85450;endArrow=none;" parent="1" source="n9" target="n3" edge="1">
          <mxGeometry relative="1" as_="geometry" as="geometry" />
        </mxCell>
        <mxCell id="e12" style="dashed=1;strokeColor=#b85450;endArrow=none;" parent="1" source="n9" target="n4" edge="1">
          <mxGeometry relative="1" as_="geometry" as="geometry" />
        </mxCell>
        <mxCell id="e13" style="dashed=1;strokeColor=#b85450;endArrow=none;" parent="1" source="n9" target="n5" edge="1">
          <mxGeometry relative="1" as_="geometry" as="geometry" />
        </mxCell>
        <mxCell id="e14" style="dashed=1;strokeColor=#b85450;endArrow=none;" parent="1" source="n9" target="n7" edge="1">
          <mxGeometry relative="1" as_="geometry" as="geometry" />
        </mxCell>
        <mxCell id="e15" style="dashed=1;strokeColor=#b85450;endArrow=none;" parent="1" source="n9" target="n6" edge="1">
          <mxGeometry relative="1" as_="geometry" as="geometry" />
        </mxCell>
        <mxCell id="e16" style="dashed=1;strokeColor=#b85450;endArrow=none;" parent="1" source="n9" target="n8" edge="1">
          <mxGeometry relative="1" as_="geometry" as="geometry" />
        </mxCell>
        <mxCell id="l1" value="&lt;font style=&quot;font-size: 14px;&quot;&gt;&lt;b&gt;Data flows from client → API → parsing → transformation → storage (SQL &amp;amp; Vector DB)&lt;/b&gt;&lt;/font&gt;" style="text;html=1;strokeColor=none;fillColor=none;align=center;verticalAlign=middle;whiteSpace=wrap;rounded=0;" parent="1" vertex="1">
          <mxGeometry x="400" y="460" width="600" height="100" as_="geometry" as="geometry" />
        </mxCell>
        <mxCell id="l2" value="Monitoring &amp; logging observed across services" style="text;html=1;strokeColor=none;fillColor=none;align=center;verticalAlign=middle;whiteSpace=wrap;rounded=0;" parent="1" vertex="1">
          <mxGeometry x="860" y="133" width="180" height="40" as_="geometry" as="geometry" />
        </mxCell>
      </root>
    </mxGraphModel>
  </diagram>
</mxfile>
